<svg xmlns="http://www.w3.org/2000/svg">
    <symbol id="iconStatus" viewBox="0 0 87 48">
        <path d="M2.50005 7.02884C2.50005 4.52766 4.52766 2.50005 7.02883 2.50005L80.9713 2.50005C83.4724 2.50005 85.5 4.52766 85.5 7.02884L85.5 40.9713C85.5 43.4725 83.4724 45.5001 80.9713 45.5001L7.02883 45.5001C4.52766 45.5001 2.50005 43.4725 2.50005 40.9713Z" stroke="#686A66" stroke-width="3" stroke-miterlimit="8" fill="#828281" fill-rule="evenodd"/>
        <path d="M45.1275 9.10379C30.2899 9.10379 18.2617 14.7432 18.2617 21.6997 18.2617 28.6562 30.2899 34.2956 45.1275 34.2956 52.5463 34.2956 58.5603 31.4759 58.5603 27.9976 58.5603 24.5193 52.5463 21.6997 45.1275 21.6997 37.7087 21.6997 31.6947 18.88 31.6947 15.4018 31.6947 11.9235 37.7087 9.10379 45.1275 9.10379ZM43.5 5C61.4493 5 76 13.5066 76 24 76 34.4934 61.4493 43 43.5 43 25.5507 43 11 34.4934 11 24 11 13.5066 25.5507 5 43.5 5Z" fill="#E9EAE4" fill-rule="evenodd"/>
    </symbol>
    <symbol id="iconSpecial" viewBox="0 0 87 48">
        <path d="M2.50005 7.02884C2.50005 4.52766 4.52766 2.50005 7.02883 2.50005L80.9713 2.50005C83.4724 2.50005 85.5 4.52766 85.5 7.02884L85.5 40.9713C85.5 43.4725 83.4724 45.5001 80.9713 45.5001L7.02883 45.5001C4.52766 45.5001 2.50005 43.4725 2.50005 40.9713Z" stroke="#314BA1" stroke-width="3" stroke-miterlimit="8" fill="#4968D4" fill-rule="evenodd"/>
        <path d="M43.5 15.8692C48.8325 15.8692 53.1553 17.9079 53.1553 20.4227 53.1553 22.9376 48.8325 24.9763 43.5 24.9763 38.1675 24.9763 33.8447 22.9376 33.8447 20.4227 33.8447 17.9079 38.1675 15.8692 43.5 15.8692ZM43.5 14.2021C35.1374 14.2021 28.3583 17.2892 28.3583 21.0973 28.3583 24.9055 35.1374 27.9925 43.5 27.9925 51.8626 27.9925 58.6417 24.9055 58.6417 21.0973 58.6417 17.2892 51.8626 14.2021 43.5 14.2021ZM43.5 11.7048C54.734 11.7048 63.8411 16.4182 63.8411 22.2325 63.8411 28.0468 54.734 32.7602 43.5 32.7602 32.266 32.7602 23.1589 28.0468 23.1589 22.2325 23.1589 16.4182 32.266 11.7048 43.5 11.7048ZM43.5 9.43449C29.5048 9.43449 18.1596 15.6145 18.1596 23.2379 18.1596 30.8613 29.5048 37.0413 43.5 37.0413 57.4952 37.0413 68.8404 30.8613 68.8404 23.2379 68.8404 15.6145 57.4952 9.43449 43.5 9.43449ZM43.5 5C61.4492 5 76 13.5066 76 24 76 34.4934 61.4492 43 43.5 43 25.5508 43 11 34.4934 11 24 11 13.5066 25.5508 5 43.5 5Z" fill="#91E1E3" fill-rule="evenodd"/>
    </symbol>
    <symbol id="iconPhysical" viewBox="0 0 87 48">
        <path d="M2.50005 7.02884C2.50005 4.52766 4.52766 2.50005 7.02883 2.50005L80.9713 2.50005C83.4724 2.50005 85.5 4.52766 85.5 7.02884L85.5 40.9713C85.5 43.4725 83.4724 45.5001 80.9713 45.5001L7.02883 45.5001C4.52766 45.5001 2.50005 43.4725 2.50005 40.9713Z" stroke="#DB1C13" stroke-width="3" stroke-miterlimit="8" fill="#EA5628" fill-rule="evenodd"/>
        <path d="M6 24 28.7604 20.9066 16.9835 10.565 37.3947 16.5319 43.5 5 49.6053 16.5319 70.0165 10.565 58.2396 20.9066 81 24 58.2396 27.0934 70.0165 37.435 49.6053 31.4681 43.5 43 37.3947 31.4681 16.9835 37.435 28.7604 27.0934Z" fill="#FFF164" fill-rule="evenodd"/>
    </symbol>
</svg>