<svg xmlns="http://www.w3.org/2000/svg">
    <symbol id="iconLock" viewBox="0 0 128 128">
        <path d="M63.9999 66.7842C57.5459 66.7842 52.3139 72.0239 52.3139 78.4875 52.3139 81.7193 53.622 84.6451 55.7368 86.763L60.6487 88.8007 52.4372 105.423 75.5626 105.423 67.3513 88.8007 72.2632 86.763C74.378 84.6451 75.6859 81.7193 75.6859 78.4875 75.6859 72.0239 70.4539 66.7842 63.9999 66.7842ZM63.9997 14.719C53.6628 14.719 45.2831 23.1111 45.2831 33.4633L45.2831 50.5095 82.7163 50.5095 82.7163 33.4633C82.7163 23.1111 74.3366 14.719 63.9997 14.719ZM63.9999 6C78.8186 6 90.8314 18.0307 90.8314 32.8713L90.8314 50.5095 111 50.5095 111 122 17 122 17 50.5095 37.1684 50.5095 37.1684 32.8713C37.1684 18.0307 49.1813 6 63.9999 6Z" />
    </symbol>
    <symbol id="iconSync" viewBox="0 0 128 128">
        <path d="M75.2131 92.1994 100.402 99.2483 64.4911 115 33.4058 114.121 28.037 104.74ZM112.961 45.8068 125 60.0657 107.094 93.671 100.577 73.3905ZM17.5283 43.054 36.9534 70.4715 24.3765 98.345 3 60.9961ZM70.2937 22.0305 82.2072 47.2 105.736 46.6078 93.8231 72.6657 100.971 93.9856 72.9744 84.5102 32.4682 96.0584 47.0623 69.1124 28.5963 43.3505 53.9126 46.6078ZM94.6106 13.5852 109.257 40.7459 89.5474 41.4195 74.1969 14.451ZM36.1267 13 66.7579 14.4705 48.3381 39.946 22.6619 35.9743Z" />
    </symbol>
    <symbol id="iconStat" viewBox="0 0 128 128">
        <path d="M45.1449 77.6319 20.3995 91.9585 62.0865 115.763 62.0865 89.3609ZM73.6246 72.288 65.9134 86.4425 65.9134 115.763 107.601 91.9585ZM18.5319 40.3916 18.5319 88.6084 42.9872 74.4498 35.1117 49.9906ZM109.468 40.3916 94.1495 49.2604 75.648 69.028 109.468 88.6086ZM62.0865 13.3716 20.5162 37.1092 36.9767 46.639 62.0865 34.4931ZM65.9134 13.3714 65.9134 34.0181 94.7234 44.4968 107.484 37.1091ZM64.0001 7 114 35.5513 114 93.4488 64.0001 122 14 93.4488 14 35.5513Z" />
    </symbol>
    <symbol id="iconPassive" viewBox="0 0 128 128">
        <path d="M36.2123 95.2788C33.6544 95.2788 31.5809 97.3363 31.5809 99.8744 31.5809 102.412 33.6544 104.47 36.2123 104.47 38.7702 104.47 40.8437 102.412 40.8437 99.8744 40.8437 97.3363 38.7702 95.2788 36.2123 95.2788ZM32.6267 51.8442C30.0689 51.8442 27.9953 53.9017 27.9953 56.4398 27.9953 58.9778 30.0689 61.0353 32.6267 61.0353 35.1846 61.0353 37.2581 58.9778 37.2581 56.4398 37.2581 53.9017 35.1846 51.8442 32.6267 51.8442ZM92.3858 47.2487C89.8279 47.2487 87.7544 49.3061 87.7544 51.8442 87.7544 54.3823 89.8279 56.4398 92.3858 56.4398 94.9436 56.4398 97.0172 54.3823 97.0172 51.8442 97.0172 49.3061 94.9436 47.2487 92.3858 47.2487ZM51.3762 35.9823C49.0246 35.9823 47.1182 37.8739 47.1182 40.2073 47.1182 42.5407 49.0246 44.4323 51.3762 44.4323 53.7278 44.4323 55.6341 42.5407 55.6341 40.2073 55.6341 37.8739 53.7278 35.9823 51.3762 35.9823ZM71.0218 5 93.1327 36.7236 126 36.7236 98.2122 71.4121 108.072 113.809 78.1929 94.2412 70.1065 97.8279 70.2089 94.0317C70.2304 92.955 70.2395 92.1795 70.244 91.8132 70.244 84.1038 76.5424 77.8544 84.3117 77.8544 86.3887 77.8159 97.1797 77.5691 97.1082 74.2992 97.0385 71.1092 86.4347 70.8034 84.3117 70.7867 76.5424 70.7867 70.244 64.5371 70.244 56.8279 70.1309 53.4795 69.1433 34.8834 64.9689 34.9374 61.4825 34.9825 60.4906 53.3428 60.4323 56.8279 60.4323 64.5371 54.134 70.7867 46.3646 70.7867 43.5747 70.9173 32.8241 71.4784 32.8297 74.6637 32.8352 77.6352 45.0058 77.8234 46.3646 77.8544 54.134 77.8544 60.4323 84.1038 60.4323 91.8132 60.4316 92.5689 60.4385 94.9747 60.5242 98.1549L60.721 101.991 13.3542 123 33.6724 77.6382 2 34.6482 45.923 35.5377Z" />
    </symbol>
    <symbol id="iconNormal" viewBox="0 0 128 128">
        <path d="M105.497 34.5241 106.29 35.4854C111.789 43.6251 115 53.4375 115 64 115 92.1665 92.1665 115 64 115 53.4376 115 43.6251 111.789 35.4854 106.29L34.5241 105.497 48.2351 91.7857 51.511 93.5638C55.3496 95.1873 59.57 96.0852 64 96.0852 81.7202 96.0852 96.0852 81.7202 96.0852 64 96.0852 59.5699 95.1873 55.3496 93.5638 51.511L91.7857 48.2351ZM64 13C74.5625 13 84.3749 16.211 92.5146 21.71L93.476 22.5032 79.7649 36.2143 76.489 34.4363C72.6504 32.8127 68.4301 31.9148 64 31.9148 46.2798 31.9148 31.9148 46.2798 31.9148 64 31.9148 68.4301 32.8127 72.6504 34.4363 76.489L36.2143 79.7649 22.5032 93.476 21.71 92.5146C16.211 84.3749 13 74.5625 13 64 13 35.8335 35.8335 13 64 13Z" />
    </symbol>
    <symbol id="iconFighting" viewBox="0 0 128 128">
        <path d="M35.8322 41.9161C50.3462 42.654 48.8569 58.6485 44.2266 65.9709 58.184 66.8655 70.6757 78.2302 72.6077 85.8509 76.1387 86.3147 76.2053 76.3416 74.6064 69.3505L98.5904 66.3685C103.187 69.2843 104.82 82.3718 102.188 86.8448 99.5566 91.3177 87.9975 91.9475 82.8009 93.2066L87.9975 110.701C70.4092 116.599 56.8182 116.135 40.0294 111.099L44.6263 92.2126C41.9282 93.074 27.5045 90.2577 23.0408 82.6701 19.7763 75.2814 14.5573 40.8344 35.8322 41.9161ZM43.6896 13.0028C48.2324 13.0732 53.1875 14.4483 58.2174 17.4634 118.597-2.21788 119.217 70.543 85.859 54.4402 82.5279 61.2657 68.0043 62.5248 62.0749 56.4282 60.0562 35.5542 40.0495 24.819 23.0408 38.5362 20.1427 24.322 30.0611 12.7915 43.6896 13.0028Z" />
    </symbol>
    <symbol id="iconFlying" viewBox="0 0 128 128">
        <path d="M21.9618 116C11.3491 101.718 3.06575 62.3163 23.7698 43.381 63.7677 6.80024 103.75 40.4977 113.76 12 132.307 58.5351 65.6848 51.5616 54.1013 47.6054 59.7257 55.5177 92.4677 64.0335 109.341 52.8356 118.648 66.7827 91.1955 86.7647 62.1361 70.94 68.631 81.4004 82.9597 86.0271 95.6815 84.2166 82.4241 113.184 48.109 80.7298 34.0146 85.6248 21.3761 90.014 16.5048 99.4714 21.9618 116Z" />
    </symbol>
    <symbol id="iconPoison" viewBox="0 0 128 128">
        <path d="M44.0395 107.017C48.1456 107.017 51.4742 110.371 51.4742 114.509 51.4742 118.646 48.1456 122 44.0395 122 39.9335 122 36.6048 118.646 36.6048 114.509 36.6048 110.371 39.9335 107.017 44.0395 107.017ZM64.0001 35.7044C71.516 35.7044 77.6088 41.1241 77.6088 47.8096 77.6088 54.4951 71.516 59.9148 64.0001 59.9148 56.4842 59.9148 50.3914 54.4951 50.3914 47.8096 50.3914 41.1241 56.4842 35.7044 64.0001 35.7044ZM63.9998 6 63.9998 21.3406 57.8668 21.8784C43.9994 24.3465 33.5676 35.0185 33.5676 47.8096 33.5676 60.6008 43.9994 71.2728 57.8668 73.7408L63.9998 74.2786 63.9998 76.2762 64.0002 76.2762 64.0002 74.2786 70.1332 73.7408C84.0006 71.2728 94.4324 60.6008 94.4324 47.8096 94.4324 35.0185 84.0006 24.3465 70.1332 21.8784L64.0002 21.3406 64.0002 6 73.2702 6.76246C94.2314 10.2625 109.999 25.3963 109.999 43.5353 110.08 52.0934 103.556 68.8933 91.8146 80.5373L89.7377 110.137C89.7377 113.502 87.0304 116.229 83.6908 116.229L83.6909 116.229C80.3514 116.229 77.644 113.501 77.644 110.136L77.644 90.1855 72.0928 91.8286 72.0928 101.746C72.0928 105.111 69.3855 107.839 66.0459 107.839L66.0461 107.839C62.7065 107.839 59.9992 105.111 59.9992 101.746L59.9992 92.7594 58.7338 92.6653C55.5282 92.1765 52.4857 91.246 49.6157 89.9663L49.4915 89.8927 49.4915 96.153C49.4915 99.5179 46.7842 102.246 43.4446 102.246L43.4448 102.246C40.1052 102.246 37.3979 99.5178 37.3979 96.1529L34.5437 78.8402C23.8372 67.312 17.924 51.6858 18.0007 43.5353 18.0007 25.3963 33.7686 10.2625 54.7298 6.76246Z" />
    </symbol>
    <symbol id="iconGround" viewBox="0 0 128 128">
        <path d="M48.0258 54.1734C66.0637 53.4944 72.8109 70.2679 100.862 69.561L104.638 69.2776 122 106 48.5546 106 48.5546 105.251C48.5546 98.1399 42.7747 92.375 35.6447 92.375 28.5148 92.375 22.7349 98.1399 22.7349 105.251L22.7349 106 6 106 35.254 57.1733 37.9151 56.129C41.6996 54.8846 45.0195 54.2865 48.0258 54.1734ZM62.0602 22C63.4313 22 64.7375 22.2618 65.9256 22.7355L69.0116 24.6963 72.0977 22.7355C73.2857 22.2618 74.592 22 75.9631 22 78.7054 22 81.188 23.0476 82.9851 24.7411L84.7452 27.2015 100.154 59.7925 98.7566 60.1102C73.6844 63.7707 71.0902 37.0752 49.1074 41.0135L44.1227 42.3709 53.2113 27.2015 53.278 27.2015 55.0381 24.7411C56.8352 23.0476 59.3179 22 62.0602 22Z" />
    </symbol>
    <symbol id="iconRock" viewBox="0 0 128 128">
        <path d="M54.5643 64.7928 76.0454 70.9297 89.4962 103 69.4836 102.727 68.7142 98.9685C66.9618 94.8829 62.8593 92.0162 58.0778 92.0162 53.2962 92.0162 49.1937 94.8829 47.4413 98.9685L46.9739 101.251 23.0455 98.8411 12.2044 85.5791ZM99.3333 28.1676 117 57.4664 101.341 95.8716 81.8674 49.5478ZM80.4622 25 65.0038 44.9944 11 70.7299 24.0493 41.827Z" />
    </symbol>
    <symbol id="iconBug" viewBox="0 0 128 128">
        <path d="M103.384 47.6538 103.569 47.9341C107.033 54.8017 109 62.6716 109 71.0365 109 94.4584 93.5748 114 73.0692 118.519L70.0056 118.852 70.0056 66.9857ZM24.9933 47.0824 34.04 52.322 30.2376 60.674C29.1839 64.2516 28.6162 68.0553 28.6162 71.999 28.6162 74.2995 28.8093 76.5524 29.1795 78.7405L30.2191 82.8046 32.5811 79.1886C33.6096 78.1732 34.8466 77.4083 36.258 76.9789 41.9035 75.2614 48.2011 79.5613 50.3239 86.5829 52.4466 93.6047 49.5909 100.689 43.9454 102.407L43.6319 102.422 45.9805 104.569C49.4506 106.796 53.3048 108.421 57.4134 109.309L59.3583 109.516 59.3583 119 54.9309 118.519C34.4252 114 19 94.4584 19 71.0365 19 62.6716 20.9676 54.8017 24.4313 47.9341ZM49.7086 9 49.0124 12.4594C49.0124 21.1408 56.0279 28.1785 64.682 28.1785 73.3361 28.1785 80.3516 21.1408 80.3516 12.4594L79.6554 9.00021 82.1308 10.6744C86.5964 15.1542 89.3584 21.3428 89.3584 28.1785L89.0941 30.8081 89.16 30.8465C92.1526 33.0241 94.8888 35.5791 97.3099 38.4481L97.4962 38.7304 64.682 57.7356 30.9546 38.2015 38.84 30.8465 40.1939 30.0551 40.0053 28.1785C40.0053 21.3428 42.7674 15.1542 47.2329 10.6744Z" />
    </symbol>
    <symbol id="iconGhost" viewBox="0 0 128 128">
        <path d="M21.6976 46.5705 21 52.393C21 72.3752 40.2518 88.5741 64 88.5741 87.7482 88.5741 107 72.3752 107 52.393L106.302 46.5705 94.4389 49.5498C85.0833 51.3806 74.7972 52.393 64 52.393 53.2028 52.393 42.9167 51.3806 33.5611 49.5498ZM64 11C93.2711 11 117 29.5323 117 52.3929 117 69.5383 103.652 84.2491 84.63 90.5329L77.691 92.2152 82.4125 93.185C87.8716 94.6651 92.2599 96.7462 92.4001 99.3978 92.9668 110.116 75.9334 114.334 60.2001 117 65.8334 113.024 74.2333 112.294 71.4 107.416 66.9667 101.536 50.7334 112.891 39.4001 103.57 35.796 100.504 42.1528 95.9193 50.5115 93.0844L52.0751 92.6433 43.3701 90.5329C24.3475 84.2491 11 69.5383 11 52.3929 11 29.5323 34.7289 11 64 11Z" />
    </symbol>
    <symbol id="iconSteel" viewBox="0 0 128 128">
        <path d="M19 52.5999 53.5694 59.3999 27.9402 81 28.7349 98 63.3045 106 63.3045 114 21.1854 103.4ZM109 36.5999 105.424 88.8 76.0199 112.8 75.6225 60.7999ZM57.3445 15 99.861 23.8 66.0861 47.2 21.7815 38.8Z" />
    </symbol>
    <symbol id="iconFire" viewBox="0 0 128 128">
        <path d="M96.8929 39.6938C104.165 64.79 95.3735 67.022 95.5545 76.0045 95.7329 84.8605 105.592 82.1405 105.994 92.8299 106.207 98.4919 100.809 103.254 93.9745 107.324L86.9096 110.993 87.1012 110.046C87.1012 103.927 82.1276 98.9657 75.9925 98.9657 71.3911 98.9657 67.4432 101.756 65.7568 105.733L65.5073 106.965 65.2733 106.45C63.5222 100.419 63.076 92.9198 65.039 86.4221 68.9649 73.427 95.4652 59.0061 96.8929 39.6938ZM57.3 9C65.7319 13.6723 79.967 20.8346 81.7927 32.8956 86.8958 66.6082 43.8714 60.4847 65.5981 119 48.1543 111.48 23.8408 98.4426 22.1001 81.2209 18.9818 50.3689 90.0015 33.6076 57.3 9Z" />
    </symbol>
    <symbol id="iconWater" viewBox="0 0 128 128">
        <path d="M47.7798 53.8617C40.6121 53.8617 34.8016 59.6799 34.8016 66.8569 34.8016 74.034 40.6121 79.8521 47.7798 79.8521 54.9474 79.8521 60.7579 74.034 60.7579 66.8569 60.7579 59.6799 54.9474 53.8617 47.7798 53.8617ZM64 10 64 10.0001C72.7115 24.6878 100.941 55.6949 101 81.8666 100.739 107.813 76.3333 118.044 64 118L64 118C51.6667 118.044 27.2607 107.813 27 81.8665 27.0595 55.6948 55.2885 24.6877 64 10Z" />
    </symbol>
    <symbol id="iconGrass" viewBox="0 0 128 128">
        <path d="M104.444 12C112.484 33.5172 110.833 68.5491 91.7841 86.7125 61.8161 115.288 51.7103 92.9678 36.5613 99.2644 29.9202 102.025 30.8463 107.831 31.677 116 30.78 114.705 29.7008 112.851 28.5556 110.558 26.9708 107.265 26.582 104.77 26.7914 101.875 31.4368 45.1903 74.5868 60.4636 95.1334 29.3333 69.5405 56.4167 23.2717 38.3222 21.7057 90.6211 21.7188 91.118 21.7319 91.6148 21.7451 92.1117L19.5962 81.293C17.6043 65.8887 20.1212 49.2029 34.5677 38.8966 67.516 15.3907 94.4756 36.1073 104.444 12Z" />
    </symbol>
    <symbol id="iconElectric" viewBox="0 0 128 128">
        <path d="M72.9201 7 72.9799 7 68.6359 49.2184C68.6359 54.4101 72.6553 59.4161 77.8599 59.4161L113 59.4161 54.5616 121 54.5581 121 59.0667 77.1816C59.0667 71.9898 55.0473 66.9839 49.8427 66.9839L16 66.9839 72.9201 7Z" />
    </symbol>
    <symbol id="iconPsychic" viewBox="0 0 128 128">
        <path d="M30.7145 34.6637 29.6799 36.1928C25.2822 44.1306 22.7143 53.6996 22.7143 64 22.7143 74.3004 25.2822 83.8695 29.6799 91.8072L30.7145 93.3363 27.9966 92.5367C11.1055 86.3523 0 75.879 0 64 0 52.121 11.1055 41.6477 27.9966 35.4633ZM96.2853 34.6636 99.0035 35.4633C115.895 41.6477 127 52.121 127 64 127 75.879 115.895 86.3523 99.0035 92.5367L96.2853 93.3364 97.32 91.8072C101.718 83.8695 104.285 74.3004 104.285 64 104.285 53.6996 101.718 44.1306 97.32 36.1928ZM63.5 34.6636C54.7732 34.6636 47.6987 47.798 47.6987 64 47.6987 80.202 54.7732 93.3364 63.5 93.3364 67.8634 93.3364 71.8138 90.0528 74.6732 84.7439L77.2228 77.7231 74.5228 78.2666C66.6205 78.2666 60.2145 71.8791 60.2145 63.9998 60.2145 56.1205 66.6205 49.733 74.5228 49.733L77.2227 50.2765 74.6732 43.2561C71.8138 37.9473 67.8634 34.6636 63.5 34.6636ZM63.5 17C78.3687 17 90.4222 38.0426 90.4222 64 90.4222 89.9574 78.3687 111 63.5 111 48.6313 111 36.5778 89.9574 36.5778 64 36.5778 38.0426 48.6313 17 63.5 17Z" />
    </symbol>
    <symbol id="iconIce" viewBox="0 0 128 128">
        <path d="M128 72.84 106.802 97.8564 93.6047 117 82.7485 113.713 98.8477 77.6432ZM0 72.84 29.1523 77.6432 45.2516 113.713 34.3954 117 21.1982 97.8564ZM41.0528 51.0254 64.0001 106.977 64.0001 66.4245C57.4358 66.4245 52.1145 61.0992 52.1145 54.53L52.8215 51.0254ZM64.0001 12 98.0129 51.0257 72.2332 110.92 55.7671 110.92 29.9873 51.0257Z" />
    </symbol>
    <symbol id="iconDragon" viewBox="0 0 128 128">
        <path d="M25.5526 38.9783C21.185 41.136 16.5513 49.5667 15.4428 53.6598 16.8173 54.6608 23.6027 55.8262 25.5526 53.6598 26.9451 52.1126 28.3461 45.0733 25.5526 38.9783ZM77.5976 10 85.3865 12.4385C105.727 21.1155 120 41.4289 120 65.1045 120 76.9423 116.432 87.9395 110.321 97.062L105.072 103.478 106.936 99.6718C109.185 93.9802 110.094 87.7282 109.394 81.3676 108.7 75.055 106.481 69.1755 103.086 64.108L101.6 62.2239 102.441 70.7488C102.441 97.3972 81.2995 119 55.2204 119L49.8461 118.446 50.6716 118.374C66.8549 115.502 79.0286 103.083 79.0286 88.1984 79.0286 71.1871 63.1283 57.3968 43.5143 57.3968L24.6254 72.7388C17.8179 72.6625 13.4217 72.7335 10.6509 71.3536 7.87996 69.9738 8.70335 69.1621 8 64.4596 8 38.142 25.1439 16.1845 47.9344 11.1063L54.1259 10.4267 50.35 14.0517C48.2025 16.5997 46.1684 19.6382 44.2924 23.091L43.862 24.0622 45.7039 23.478C48.7779 22.8352 51.9606 22.4977 55.2204 22.4977 68.26 22.4977 80.0651 27.8984 88.6103 36.6302L92.5374 41.4938C92.5337 41.3794 92.5299 41.2652 92.5263 41.1508 91.5837 32.5607 88.6786 24.3097 83.9693 17.3759Z" />
    </symbol>
    <symbol id="iconDark" viewBox="0 0 128 128">
        <path d="M112 87.7656 109.419 92.5146C100.241 106.081 84.6985 115 67.0703 115 52.9676 115 40.2001 109.292 30.9581 100.062L25.2633 93.1697 27.3544 91.9294C42.4071 84.8343 55.7774 104.962 73.8981 91.5304L73.795 91.372 78.5581 94.074C82.2942 95.7257 86.4019 96.6389 90.7137 96.6389 97.1813 96.6389 103.19 94.584 108.174 91.0647ZM67.0703 13C84.6985 13 100.241 21.9193 109.419 35.4854L112 40.2348 108.174 36.9355C103.19 33.4162 97.1813 31.3613 90.7137 31.3613 73.4666 31.3613 59.4852 45.9741 59.4852 64.0001 59.4852 68.5066 60.359 72.7998 61.9393 76.7047L64.6476 81.9196 63.912 82.1756C49.4267 85.3164 39.549 61.4623 19.3928 67.6642L16.4883 68.837 16 64C16 35.8335 38.865 13 67.0703 13Z" />
    </symbol>
    <symbol id="iconFairy" viewBox="0 0 128 128">
        <path d="M43.1134 82.071 43.1628 82.3191 42.898 82.6767C42.4148 83.6887 42.1192 84.8135 42.0592 86.0071 41.9204 88.7679 41.9006 91.5348 42 94.3081 44.7095 94.6905 47.4249 94.952 50.1464 95.0928 51.323 95.1537 52.4561 94.9698 53.4976 94.5851L54.1737 94.1718 54.5507 94.4296 53.282 97.5503C50.0329 103.895 45.9641 107.747 42.5367 109.378 40.4973 110.393 39.9757 110.789 37.1413 110.998 31.0947 111.121 26.2915 106.248 26.4129 100.114 26.693 96.5951 26.5371 97.5497 27.8507 94.4794 29.4578 91.0025 33.2553 86.875 39.5096 83.579ZM84.9025 81.9904 88.699 83.579C94.9535 86.875 98.7509 91.0025 100.358 94.4794 101.672 97.5497 101.516 96.5951 101.796 100.114 101.917 106.248 97.1139 111.121 91.0674 110.998 88.233 110.789 87.7114 110.393 85.6719 109.378 82.2446 107.747 78.1758 103.895 74.9268 97.5503L73.6126 94.3179 79.927 89.9989C81.9651 87.9314 83.6144 85.4696 84.7542 82.7359ZM63.9999 59.7681C71.241 59.7681 77.1109 65.7229 77.1109 73.0686 77.1109 80.4143 71.241 86.3691 63.9999 86.3691 56.7589 86.3691 50.889 80.4143 50.889 73.0686 50.889 65.7229 56.7589 59.7681 63.9999 59.7681ZM104.23 17.0002C114.596 17.0002 123 25.5254 123 36.0417 122.745 40.9661 122.093 41.86 120.447 45.3737 116.856 53.4139 106.346 63.38 87.6368 68.8374L85.6244 69.3201 85.5925 69.1599 86.4491 62.6499C87.1352 58.97 88.0211 55.3061 89.107 51.658 85.3857 52.1784 81.6801 52.496 77.9901 52.6109L71.7312 52.4613 71.6726 52.4428 74.1818 44.9632C79.7705 30.7094 87.9586 22.4301 94.7521 19.3076 99.8978 17.1279 98.2893 17.3663 104.23 17.0002ZM23.7702 17C29.7107 17.3661 28.1022 17.1277 33.2479 19.3074 40.0414 22.4299 48.2296 30.7092 53.8183 44.963L56.3275 52.4428 55.2325 52.7875C49.8429 55.1001 45.5254 59.4801 43.2457 64.9475L42.3756 69.3199 40.3632 68.8372C21.6543 63.3798 11.1442 53.4137 7.55316 45.3735 5.90743 41.8598 5.25507 40.9659 5 36.0415 5.0001 25.5252 13.4038 17 23.7702 17Z" />
    </symbol>
    <symbol id="iconTrainer" viewBox="0 0 128 128">
        <path d="M82.0843 100.72 78.7501 102.512C74.2188 104.41 69.2371 105.46 64.0078 105.46 58.7786 105.46 53.7968 104.41 49.2656 102.512L46.33 100.935 39.492 105.514C46.0598 109.835 54.9519 112.238 64.1984 112.193 73.556 112.147 82.4896 109.597 88.976 105.12ZM26.1368 60.0843 24.6884 60.0895C19.5624 61.4458 16.855 67.9117 18.6413 74.5317 20.4275 81.1518 26.031 85.419 31.157 84.0627 32.4385 83.7236 33.5689 83.0653 34.5156 82.1649L35.7675 80.3072 38.5492 85.3819C44.2054 93.6722 53.784 99.1229 64.6482 99.1229 75.5125 99.1229 85.091 93.6722 90.7472 85.3819L92.9474 81.3682 93.4844 82.165C94.4311 83.0654 95.5615 83.7237 96.843 84.0628 101.969 85.4191 107.572 81.1519 109.359 74.5318 111.145 67.9118 108.438 61.4459 103.312 60.0896L102.034 60.085 101.149 63.1681C92.5718 87.136 75.2411 67.758 63.9999 67.758 52.7588 67.758 35.6928 86.8739 27 63.0206ZM63.9998 42.578C58.2691 42.578 52.8096 43.4896 47.8439 45.1381L41.0029 48.0527 37.7305 51.7956C36.8105 53.2949 36.0146 54.8772 35.357 56.5285L34.3681 59.8255 39.8086 55.0925C46.1979 50.7175 54.6856 48.0511 63.9998 48.0511 76.4189 48.0511 87.3682 52.7915 93.8339 60.0015L95.2815 62.0107 95.2815 61.0031 93.9394 56.5285C93.2818 54.8772 92.4859 53.2949 91.566 51.7956L89.8926 49.8816 87.2062 48.1419C80.5818 44.6291 72.596 42.578 63.9998 42.578ZM63.9999 10C77.8353 10 105.506 22.9296 105.506 38.879 105.218 42.5185 104.857 45.816 104.432 48.7997L103.506 53.8769 104.986 53.8822C112.767 55.9407 116.876 65.7551 114.165 75.8033 111.454 85.8515 102.949 92.3284 95.1681 90.27L94.5728 89.9336 90.7887 94.4752 87.2029 97.4047 100.534 105.914C91.3867 113.519 78.2163 117.917 64.3368 117.999 50.5867 118.08 37.4315 113.919 28.1251 106.545L41.2447 97.7577 37.227 94.4752 33.4377 89.9275 32.8318 90.2699C25.0514 92.3283 16.546 85.8514 13.8348 75.8031 11.1235 65.755 15.233 55.9406 23.0135 53.8821L24.6091 53.8763 23.6341 48.7344C23.1895 45.7694 22.8074 42.4937 22.4941 38.879 22.4941 22.9296 50.1646 10 63.9999 10Z" />
    </symbol>
    <symbol id="iconItem" viewBox="0 0 128 128">
        <path d="M98.722 68.5088C98.3108 68.5446 97.8368 68.6432 97.2974 68.7833 83.1436 72.4594 70.4359 72.43 57.0051 74.2534 54.5977 74.4054 53.956 76.3806 53.9641 78.508 54.0007 88.0352 53.6094 94.4374 55.0285 103.428 55.4317 105.982 58.3988 108.29 60.6542 108.442 67.9398 108.265 87.5411 106.467 95.1687 103.276 97.9309 102.212 99.9962 100.541 100.49 96.59 100.845 92.1202 101.105 87.4414 101.184 82.9526L101.173 80.3937 98.4682 81.0136C87.7054 83.1627 72.3808 84.3012 62.9349 85.4978 63.0996 87.5111 63.8092 90.5248 63.8472 91.8796 63.8852 93.2345 63.7276 93.3232 63.0869 93.3232L60.3501 93.3232C59.7242 93.3232 59.5138 93.6144 59.5899 91.9556L60.7302 83.5224C71.5255 82.1549 82.4918 81.0865 92.7633 79.3557L101.162 77.688 101.157 76.4116C101.095 74.312 100.978 72.3098 100.794 70.4547 100.623 68.8592 99.9555 68.4016 98.722 68.5088ZM21.0534 66.4633C20.523 66.4994 20.174 66.7036 20.0577 67.1119 17.3385 95.4758 17.432 107.581 41.625 112.545 42.9934 106.517 43.3735 81.4964 41.1688 78.0522 37.3618 74.1965 24.7658 66.2109 21.0534 66.4633ZM66.5987 11.5005C74.4362 11.5202 81.253 12.3055 84.8296 13.4738 89.9095 15.1332 96.0637 27.4006 100.336 40.0527L101.461 43.7263 100.846 44.4279C99.0204 46.0446 95.4007 47.4375 90.8457 48.5863L88.939 49.0091 87.9473 44.1421C87.7065 43.1922 87.0094 41.6346 85.3241 41.9764 84.0433 41.9764 83.7652 43.3939 83.7652 44.6739 83.9869 45.6995 84.1849 46.6681 84.3544 47.6106L84.6909 49.8479 75.9 51.2015 69.6251 51.7586 68.8655 48.0305C68.6246 47.0807 67.9276 45.5231 66.2423 45.8648 64.9615 45.8648 64.6834 47.2823 64.6834 48.5623 64.9051 49.5879 65.1031 50.5565 65.2726 51.499L65.3684 52.1365 65.312 52.1415C55.0367 52.7467 46.3744 52.3317 45.3988 50.752 42.7211 48.6585 37.4586 30.9648 36.5294 27.1999 35.9529 25.3385 35.1293 25.0061 34.5184 25.0061 34.3147 25.0061 34.1347 25.043 33.9953 25.0726 33.4378 25.1908 32.4917 25.883 33.1844 27.909 36.124 37.9039 38.9875 47.8988 43.9797 53.791 44.3493 55.1463 52.1546 55.6321 62.0985 55.2213L65.7477 55.0121 65.9093 57.0875C65.9457 58.0489 65.9441 59.0461 65.8998 60.1096 65.9126 61.1861 66.5336 62.1614 67.9908 62.1994 68.7645 62.2195 70.614 61.7695 70.538 59.8817L70.1139 54.6734 81.1631 53.5076 84.9627 52.8337 84.9911 53.199C85.0275 54.1605 85.0259 55.1576 84.9816 56.2212 84.9944 57.2976 85.6154 58.273 87.0726 58.3109 87.8464 58.3311 89.6959 57.8811 89.6199 55.9933L89.2999 52.0644 90.8492 51.7896C95.3591 50.7894 99.2388 49.577 101.903 48.1491L102.658 47.6425 104.371 54.7657C104.83 57.0306 105.166 59.1472 105.356 61.0339 115.34 60.5274 117.849 108.619 103.075 105.099 89.7648 112.988 58.6976 115.857 41.9525 116.495 36.663 116.697 22.0344 110.316 17.9291 102.972 13.0024 94.1582 12.8609 57.3112 20.9701 59.6664 23.7069 46.2948 24.5958 22.7992 29.1806 19.5518 37.6385 13.561 53.5363 11.4675 66.5987 11.5005Z"/>
    </symbol>
    <symbol id="iconEgg" viewBox="0 0 128 128">
        <path d="M 36.992188 85.777344 C 35.675781 85.726562 34.339844 85.828125 33.007812 86.089844 L 32.027344 86.539062 L 34.890625 92.695312 C 39.996094 101.515625 47.933594 107.917969 57.183594 110.128906 L 57.484375 110.164062 L 56.792969 104.8125 C 54.636719 93.914062 46.210938 86.132812 36.992188 85.777344 Z M 81.414062 45.683594 C 68.441406 45.683594 57.929688 61.460938 57.929688 80.921875 C 57.929688 94.167969 65.980469 105.21875 76.679688 107.773438 L 77.671875 107.890625 L 78.164062 107.710938 C 90.910156 101.417969 99.855469 86.6875 99.855469 69.515625 C 99.855469 65.839844 99.609375 62.246094 99.132812 58.777344 L 98.890625 57.589844 L 98.019531 56.003906 C 93.769531 49.628906 87.898438 45.683594 81.414062 45.683594 Z M 74.792969 18.839844 L 74.652344 20.933594 C 74.652344 32.957031 83.003906 42.703125 93.304688 42.703125 L 94.804688 42.523438 L 93.789062 39.71875 C 89.960938 31.210938 84.539062 24.453125 78.164062 20.410156 Z M 54.09375 18.742188 L 50.515625 20.410156 C 44.140625 24.453125 38.71875 31.210938 34.890625 39.71875 L 31.96875 47.789062 L 34.886719 48.132812 C 45.765625 48.132812 54.582031 37.839844 54.582031 25.144531 C 54.582031 23.105469 54.445312 21.113281 54.183594 19.1875 Z M 64 9.308594 C 87.457031 9.308594 106.472656 36.855469 106.472656 70.835938 C 106.472656 97.265625 87.457031 118.691406 64 118.691406 C 40.542969 118.691406 21.527344 97.265625 21.527344 70.835938 C 21.527344 36.855469 40.542969 9.308594 64 9.308594 Z M 64 9.308594 "/>
    </symbol>
</svg>