<svg xmlns="http://www.w3.org/2000/svg">
    <symbol id="1001" viewBox="0 0 440 440">
        <path d="M36.0001 239.999 153.16 239.999 155.617 247.915C166.307 273.194 191.333 290.931 220.5 290.931 249.669 290.931 274.694 273.194 285.384 247.915L287.841 239.999 405 239.999 403.177 258.086C385.79 343.071 310.609 407 220.5 407 130.391 407 55.2104 343.071 37.8232 258.086ZM220.5 175.385C245.412 175.385 265.607 195.584 265.607 220.5 265.607 245.417 245.412 265.615 220.5 265.615 195.588 265.615 175.393 245.417 175.393 220.5 175.393 195.584 195.588 175.385 220.5 175.385ZM220.5 34C310.609 34 385.79 97.9288 403.177 182.914L405 201.001 287.841 201.001 285.384 193.086C274.694 167.807 249.669 150.07 220.5 150.07 191.333 150.07 166.307 167.807 155.617 193.086L153.16 201.001 36.0001 201.001 37.8232 182.914C55.2104 97.9288 130.391 34 220.5 34Z"/>
    </symbol>
    <symbol id="1002" viewBox="0 0 440 440">
        <path d="M339.247 235.459C337.835 235.581 336.207 235.919 334.355 236.4 285.746 249.004 242.103 248.903 195.977 255.155 187.709 255.675 185.505 262.448 185.533 269.742 185.659 302.406 184.315 324.357 189.188 355.181 190.573 363.939 200.763 371.852 208.509 372.373 233.53 371.765 300.848 365.6 327.044 354.66 336.53 351.013 343.623 345.282 345.32 331.737 346.539 316.412 347.431 300.37 347.703 284.98L347.666 276.207 338.375 278.332C301.412 285.701 248.782 289.604 216.342 293.707 216.908 300.609 219.344 310.942 219.475 315.587 219.605 320.232 219.064 320.536 216.864 320.536L207.465 320.536C205.315 320.536 204.593 321.535 204.854 315.848L208.77 286.934C245.845 282.245 283.507 278.582 318.783 272.648L347.627 266.93 347.609 262.554C347.398 255.355 346.996 248.49 346.365 242.13 345.777 236.66 343.484 235.091 339.247 235.459ZM72.5062 228.445C70.6848 228.569 69.4861 229.269 69.0868 230.669 59.7479 327.917 60.0693 369.421 143.156 386.439 147.856 365.774 149.161 279.988 141.59 268.179 128.515 254.959 85.2559 227.58 72.5062 228.445ZM228.925 40.0012C255.841 40.0689 279.253 42.7614 291.536 46.767 308.982 52.4564 330.118 94.516 344.791 137.895L348.655 150.49 346.543 152.895C340.272 158.439 327.841 163.214 312.197 167.153L305.649 168.602 302.243 151.915C301.416 148.659 299.022 143.318 293.234 144.49 288.835 144.49 287.88 149.35 287.88 153.739 288.642 157.255 289.322 160.576 289.904 163.807L291.06 171.478 260.868 176.119 239.318 178.029 236.71 165.247C235.882 161.991 233.489 156.65 227.701 157.822 223.302 157.822 222.347 162.682 222.347 167.071 223.108 170.587 223.788 173.908 224.37 177.139L224.699 179.325 224.506 179.342C189.217 181.417 159.467 179.994 156.117 174.578 146.921 167.4 128.847 106.736 125.656 93.8279 123.676 87.446 120.848 86.3064 118.75 86.3064 118.05 86.3064 117.432 86.433 116.953 86.5343 115.039 86.9395 111.79 89.3128 114.168 96.2591 124.264 130.527 134.098 164.796 151.243 184.998 152.512 189.644 179.319 191.31 213.469 189.901L226.002 189.184 226.557 196.3C226.682 199.596 226.676 203.015 226.524 206.661 226.568 210.352 228.701 213.696 233.706 213.826 236.363 213.895 242.715 212.352 242.454 205.88L240.997 188.023 278.944 184.026 291.993 181.715 292.091 182.968C292.216 186.264 292.21 189.683 292.058 193.33 292.102 197.02 294.235 200.364 299.239 200.494 301.897 200.563 308.248 199.021 307.987 192.548L306.889 179.078 312.209 178.135C327.698 174.706 341.022 170.549 350.171 165.654L352.766 163.917 358.647 188.339C360.223 196.105 361.378 203.362 362.03 209.83 396.32 208.094 404.936 372.981 354.198 360.912 308.485 387.958 201.79 397.796 144.281 399.984 126.115 400.676 75.8753 378.798 61.7764 353.618 44.8564 323.399 44.3704 197.067 72.2201 205.142 81.6193 159.296 84.6721 78.7398 100.418 67.6058 129.465 47.066 184.064 39.8883 228.925 40.0012Z"/>
    </symbol>
    <symbol id="2001" viewBox="0 0 440 440">
        <path d="M219.613 240.171C263.677 240.171 299.399 275.951 299.399 320.086 299.399 364.221 263.677 400 219.613 400 175.549 400 139.826 364.221 139.826 320.086 139.826 275.951 175.549 240.171 219.613 240.171ZM356.49 188.333C388.803 188.333 415 214.572 415 246.937 415 279.303 388.803 305.541 356.49 305.541 324.176 305.541 297.98 279.303 297.98 246.937 297.98 214.572 324.176 188.333 356.49 188.333ZM83.5103 188.333C115.824 188.333 142.02 214.572 142.02 246.937 142.02 279.303 115.824 305.541 83.5103 305.541 51.1967 305.541 25.0001 279.303 25.0001 246.937 25.0001 214.572 51.1967 188.333 83.5103 188.333ZM320.676 81.2032C347.115 81.2032 368.548 102.671 368.548 129.152 368.548 155.633 347.115 177.101 320.676 177.101 294.237 177.101 272.804 155.633 272.804 129.152 272.804 102.671 294.237 81.2032 320.676 81.2032ZM118.55 81.2032C144.989 81.2032 166.422 102.671 166.422 129.152 166.422 155.633 144.989 177.101 118.55 177.101 92.111 177.101 70.6779 155.633 70.6779 129.152 70.6779 102.671 92.111 81.2032 118.55 81.2032ZM219.613 39.9999C241.646 39.9999 259.506 57.8889 259.506 79.9572 259.506 102.025 241.646 119.914 219.613 119.914 197.58 119.914 179.72 102.025 179.72 79.9572 179.72 57.8889 197.58 39.9999 219.613 39.9999Z"/>
    </symbol>
    <symbol id="2002" viewBox="0 0 440 440">
        <path d="M272.286 217.632 272.286 406 168.715 380.123 168.715 223.935 218.257 293.478ZM143.731 188.376 148.518 195.583 149.573 197.063 149.573 380.123 46.0001 406 46.0001 212.794ZM395 186.916 395 380.123 291.429 406 291.429 212.794ZM218.255 74.3925C196.173 74.3925 178.273 92.0087 178.273 113.738 178.273 135.467 196.173 153.083 218.255 153.083 240.337 153.083 258.238 135.467 258.238 113.738 258.238 92.0087 240.337 74.3925 218.255 74.3925ZM218.255 35.0001C240.084 35.0001 261.914 43.322 278.569 59.9687 311.879 93.2592 311.879 147.234 278.569 180.524 254.398 204.682 234.292 232.905 218.255 265.189 202.218 232.905 182.114 204.682 157.942 180.524 124.631 147.234 124.631 93.2592 157.942 59.9687 174.597 43.322 196.426 35.0001 218.255 35.0001Z" />
    </symbol>
    <symbol id="2003" viewBox="0 0 440 440">
        <path d="M266.448 282.921 256.87 288.115C243.854 293.615 229.544 296.656 214.523 296.656 199.501 296.656 185.191 293.615 172.175 288.115L163.742 283.542 144.1 296.815C162.966 309.336 188.509 316.302 215.07 316.17 241.95 316.037 267.612 308.646 286.245 295.671ZM105.736 165.152 101.576 165.167C86.8508 169.097 79.0737 187.837 84.2048 207.023 89.336 226.209 105.432 238.575 120.157 234.645 123.838 233.662 127.085 231.754 129.805 229.145L133.401 223.761 141.391 238.468C157.639 262.494 185.154 278.291 216.362 278.291 247.57 278.291 275.085 262.494 291.333 238.468L297.653 226.836 299.195 229.145C301.915 231.754 305.162 233.662 308.843 234.645 323.568 238.576 339.664 226.209 344.795 207.023 349.926 187.837 342.149 169.098 327.424 165.167L323.754 165.154 321.212 174.089C296.574 243.551 246.791 187.391 214.5 187.391 182.209 187.391 133.186 242.792 108.216 173.662ZM214.5 114.416C198.038 114.416 182.355 117.058 168.091 121.836L148.44 130.282 139.04 141.13C136.397 145.475 134.111 150.061 132.221 154.846L129.381 164.402 145.009 150.685C163.363 138.005 187.744 130.278 214.5 130.278 250.174 130.278 281.626 144.016 300.199 164.912L304.358 170.735 304.358 167.815 300.502 154.846C298.613 150.061 296.327 145.475 293.685 141.13L288.878 135.583 281.161 130.541C262.132 120.36 239.192 114.416 214.5 114.416ZM214.5 19.9999C254.242 19.9999 333.727 57.4717 333.727 103.696 332.9 114.243 331.865 123.8 330.642 132.447L327.983 147.162 332.235 147.177C354.586 153.143 366.39 181.587 358.602 210.708 350.814 239.829 326.382 258.6 304.032 252.634L302.322 251.659 291.452 264.822 281.151 273.312 319.445 297.973C293.17 320.015 255.337 332.758 215.467 332.997 175.97 333.233 138.181 321.173 111.448 299.801L149.134 274.335 137.593 264.822 126.708 251.642 124.968 252.634C102.618 258.6 78.1862 239.829 70.3982 210.707 62.6099 181.586 74.4144 153.143 96.7642 147.177L101.348 147.16 98.5472 132.258C97.27 123.665 96.1723 114.172 95.2724 103.696 95.2724 57.4717 174.757 19.9999 214.5 19.9999Z" />
        <path d="M98.5856 255 116.432 279.122 105.008 282.101C75.4504 293.527 57.1686 309.312 57.1686 326.748 57.1686 361.621 130.294 389.891 220.5 389.891 310.706 389.891 383.831 361.621 383.831 326.748 383.831 309.312 365.55 293.527 335.992 282.101L324.571 279.123 342.417 255.002 358.033 260.103C393.23 277.159 415 300.721 415 326.748 415 378.803 327.919 421 220.5 421 113.081 421 26.0001 378.803 26.0001 326.748 26.0001 300.721 47.771 277.159 82.9688 260.103Z" />
    </symbol>
    <symbol id="2004" viewBox="0 0 440 440">
        <path d="M156.516 49.9998 174.185 92.7284C185.91 104.473 202.109 111.737 220.001 111.737 237.893 111.737 254.091 104.473 265.816 92.7284L283.485 49.9998 332.547 68.0727 362.09 92.0114 362.912 91.3597 365.802 95.0199 366.658 95.7131 366.928 96.4478 435 182.666 359.811 242.228 323.68 196.464 361.71 367.83 327.782 379.193C294.654 386.152 258.232 390 219.999 390 181.767 390 145.344 386.152 112.217 379.193L78.2902 367.832 116.322 196.463 80.189 242.228 5.00016 182.666 73.0686 96.4523 73.3407 95.7131 74.2029 95.0154 77.088 91.3597 77.9102 92.0114 107.452 68.0727Z" />
    </symbol>
    <symbol id="2999" viewBox="0 0 440 440">
        <path d="M319.314 180.536C297.242 180.536 279.35 198.428 279.35 220.5 279.35 242.572 297.242 260.464 319.314 260.464 341.386 260.464 359.278 242.572 359.278 220.5 359.278 198.428 341.386 180.536 319.314 180.536ZM220.5 180.536C198.428 180.536 180.536 198.428 180.536 220.5 180.536 242.572 198.428 260.464 220.5 260.464 242.572 260.464 260.464 242.572 260.464 220.5 260.464 198.428 242.572 180.536 220.5 180.536ZM121.688 180.536C99.6155 180.536 81.7233 198.428 81.7233 220.5 81.7233 242.572 99.6155 260.464 121.688 260.464 143.76 260.464 161.652 242.572 161.652 220.5 161.652 198.428 143.76 180.536 121.688 180.536ZM220.5 34C323.501 34 407 117.499 407 220.5 407 323.501 323.501 407 220.5 407 117.499 407 34 323.501 34 220.5 34 117.499 117.499 34 220.5 34Z" />
    </symbol>
</svg>